<svg xmlns="http://www.w3.org/2000/svg" width="850.60602pt" height="150pt" viewBox="0 0 850.60604 150"><defs><clipPath id="a"><path d="M865.98 1411.437a5.212 5.212 0 0 0 5.214 5.212 5.21 5.21 0 0 0 5.212-5.212 5.213 5.213 0 1 0-10.426 0"/></clipPath></defs><path fill="#fff" d="M149.973 75.007c0 41.417-33.576 74.993-74.966 74.993C33.576 150 0 116.424 0 75.007 0 33.575 33.576 0 74.993 0c41.404 0 74.98 33.575 74.98 75.007" style="stroke-width:13.7099"/><path fill="#0085cb" d="M74.996 146.204c39.484 0 71.456-31.986 71.456-71.456 0-39.485-31.972-71.484-71.47-71.484-39.47 0-71.47 32-71.47 71.484 0 39.47 32 71.456 71.484 71.456" style="stroke-width:13.7099"/><g clip-path="url(#a)" transform="matrix(13.7099 0 0 13.7099 -11868.986 -19275.908)"><path fill="#0085cb" d="M871.214 1413.952c2.292 0 4.256.638 5.097 1.545a5.269 5.269 0 0 0 .437-2.11c0-2.992-2.48-5.414-5.534-5.414-3.052 0-5.532 2.423-5.532 5.415 0 .75.157 1.462.438 2.109.839-.907 2.805-1.545 5.094-1.545"/><path fill="#0086cc" d="M871.213 1413.958c2.286 0 4.245.633 5.084 1.532a5.19 5.19 0 0 0 .436-2.093c0-2.967-2.472-5.377-5.52-5.377-3.044 0-5.518 2.411-5.518 5.378a5.2 5.2 0 0 0 .438 2.092c.836-.899 2.797-1.532 5.08-1.532"/><path fill="#0088cd" d="M871.213 1413.963c2.279 0 4.233.627 5.07 1.521a5.15 5.15 0 0 0 .434-2.077c0-2.944-2.465-5.34-5.504-5.34-3.037 0-5.504 2.397-5.504 5.341 0 .738.155 1.44.436 2.076.834-.894 2.79-1.52 5.068-1.52"/><path fill="#0089ce" d="M871.211 1413.97c2.274 0 4.224.621 5.058 1.507a5.087 5.087 0 0 0 .433-2.059c0-2.92-2.458-5.307-5.49-5.307-3.029 0-5.49 2.388-5.49 5.308 0 .731.155 1.426.435 2.058.832-.886 2.783-1.508 5.054-1.508"/><path fill="#008cd0" d="M871.211 1413.975c2.268 0 4.212.617 5.044 1.495.28-.626.433-1.317.433-2.042 0-2.896-2.453-5.27-5.477-5.27-3.02 0-5.476 2.375-5.476 5.271 0 .725.156 1.415.434 2.041.83-.878 2.776-1.495 5.042-1.495"/><path fill="#008ed1" d="M871.211 1413.981c2.261 0 4.2.612 5.032 1.482.278-.62.43-1.306.43-2.025 0-2.87-2.446-5.233-5.462-5.233-3.014 0-5.46 2.363-5.46 5.234 0 .72.153 1.404.431 2.024.828-.87 2.77-1.482 5.03-1.482"/><path fill="#0090d2" d="M871.21 1413.987c2.256 0 4.19.606 5.019 1.47.277-.616.43-1.295.43-2.008 0-2.848-2.44-5.199-5.45-5.199-3.004 0-5.446 2.352-5.446 5.2 0 .712.155 1.391.432 2.006.826-.863 2.76-1.469 5.015-1.469"/><path fill="#0091d3" d="M871.209 1413.993c2.25 0 4.18.6 5.006 1.457.277-.61.428-1.284.428-1.991 0-2.823-2.433-5.162-5.434-5.162-2.997 0-5.432 2.339-5.432 5.163 0 .708.153 1.38.43 1.99.824-.856 2.755-1.457 5.002-1.457"/><path fill="#0093d4" d="M871.209 1413.998c2.244 0 4.168.597 4.992 1.446a4.75 4.75 0 0 0 .427-1.975c0-2.8-2.426-5.126-5.42-5.126-2.99 0-5.418 2.327-5.418 5.127 0 .7.153 1.368.429 1.974.822-.85 2.748-1.446 4.99-1.446"/><path fill="#0094d5" d="M871.208 1414.005c2.239 0 4.158.59 4.98 1.433.274-.6.426-1.264.426-1.958 0-2.775-2.421-5.09-5.406-5.09-2.982 0-5.404 2.315-5.404 5.09 0 .696.153 1.358.428 1.958.819-.843 2.74-1.433 4.976-1.433"/><path fill="#0096d7" d="M871.207 1414.01c2.233 0 4.148.586 4.966 1.42a4.615 4.615 0 0 0 .426-1.94c0-2.751-2.414-5.054-5.392-5.054-2.974 0-5.39 2.303-5.39 5.055 0 .688.153 1.344.427 1.94.817-.835 2.733-1.421 4.963-1.421"/><path fill="#0098d8" d="M871.207 1414.016c2.226 0 4.135.58 4.952 1.408a4.54 4.54 0 0 0 .424-1.924c0-2.727-2.407-5.018-5.376-5.018-2.967 0-5.377 2.29-5.377 5.019 0 .683.152 1.332.426 1.923.815-.828 2.726-1.408 4.951-1.408"/><path fill="#009bda" d="M871.206 1414.022c2.221 0 4.125.575 4.94 1.395a4.49 4.49 0 0 0 .422-1.907c0-2.702-2.4-4.982-5.362-4.982-2.959 0-5.362 2.28-5.362 4.983 0 .677.151 1.322.424 1.906.814-.82 2.72-1.395 4.938-1.395"/><path fill="#009ddb" d="M871.205 1414.028c2.215 0 4.115.569 4.927 1.383.273-.58.422-1.22.422-1.89 0-2.679-2.395-4.946-5.349-4.946-2.95 0-5.347 2.267-5.347 4.947 0 .67.151 1.309.423 1.889.811-.814 2.712-1.383 4.924-1.383"/><path fill="#009edc" d="M871.205 1414.033c2.208 0 4.103.564 4.912 1.37a4.343 4.343 0 0 0 .422-1.872c0-2.655-2.388-4.912-5.334-4.912-2.944 0-5.334 2.257-5.334 4.913 0 .664.15 1.297.422 1.871.808-.806 2.704-1.37 4.912-1.37"/><path fill="#00a0dd" d="M871.204 1414.039c2.202 0 4.092.56 4.9 1.358.272-.568.42-1.196.42-1.855 0-2.632-2.381-4.875-5.32-4.875-2.935 0-5.32 2.244-5.32 4.875 0 .659.15 1.287.42 1.855.809-.798 2.699-1.358 4.9-1.358"/><path fill="#00a2de" d="M871.204 1414.045c2.196 0 4.08.555 4.887 1.346a4.227 4.227 0 0 0 .418-1.84c0-2.606-2.375-4.837-5.305-4.837-2.928 0-5.305 2.232-5.305 4.838 0 .654.149 1.275.419 1.839.805-.791 2.69-1.346 4.886-1.346"/><path fill="#00a4df" d="M871.203 1414.05c2.19 0 4.07.55 4.873 1.334a4.157 4.157 0 0 0 .419-1.821c0-2.584-2.37-4.803-5.292-4.803-2.92 0-5.291 2.22-5.291 4.803 0 .646.15 1.262.418 1.82.803-.784 2.684-1.332 4.873-1.332"/><path fill="#01a5e1" d="M871.202 1414.056c2.185 0 4.06.544 4.86 1.32.27-.553.418-1.164.418-1.804 0-2.559-2.363-4.767-5.278-4.767-2.912 0-5.277 2.208-5.277 4.767 0 .64.15 1.251.417 1.804.8-.775 2.677-1.32 4.86-1.32"/><path fill="#01a7e2" d="M871.2 1414.062c2.18 0 4.05.539 4.849 1.309a4.042 4.042 0 0 0 .415-1.788c0-2.535-2.355-4.731-5.263-4.731-2.904 0-5.262 2.196-5.262 4.73 0 .636.148 1.24.416 1.789.798-.77 2.669-1.31 4.846-1.31"/><path fill="#00abe4" d="M871.2 1414.068c2.174 0 4.039.533 4.836 1.296a3.995 3.995 0 0 0 .414-1.77c0-2.512-2.35-4.696-5.25-4.696-2.896 0-5.248 2.185-5.248 4.696 0 .628.148 1.227.415 1.77.796-.763 2.662-1.296 4.834-1.296"/><path fill="#00ade5" d="M871.2 1414.074c2.167 0 4.027.528 4.822 1.283a3.925 3.925 0 0 0 .413-1.753c0-2.488-2.344-4.66-5.235-4.66-2.889 0-5.235 2.172-5.235 4.66 0 .622.15 1.215.414 1.753.794-.755 2.656-1.283 4.821-1.283"/><path fill="#00afe6" d="M871.2 1414.08c2.16 0 4.016.523 4.808 1.27a3.856 3.856 0 0 0 .412-1.736c0-2.463-2.338-4.623-5.22-4.623-2.882 0-5.22 2.16-5.22 4.623 0 .615.146 1.204.412 1.736.791-.747 2.647-1.27 4.807-1.27"/><path fill="#06b0e8" d="M871.198 1414.085c2.156 0 4.006.518 4.796 1.26.266-.528.411-1.11.411-1.72 0-2.44-2.33-4.589-5.207-4.589-2.873 0-5.206 2.148-5.206 4.588 0 .61.148 1.193.412 1.72.79-.74 2.64-1.259 4.794-1.259"/><path fill="#0cb2e9" d="M871.197 1414.091c2.15 0 3.995.512 4.783 1.246a3.742 3.742 0 0 0 .41-1.703c0-2.415-2.324-4.55-5.193-4.55-2.865 0-5.19 2.135-5.19 4.551 0 .603.145 1.18.41 1.702.787-.734 2.633-1.246 4.78-1.246"/><path fill="#10b4ea" d="M871.197 1414.097c2.145 0 3.984.507 4.77 1.233a3.688 3.688 0 0 0 .409-1.686c0-2.39-2.318-4.515-5.18-4.515-2.856 0-5.176 2.124-5.176 4.515 0 .598.146 1.17.409 1.686.785-.726 2.627-1.233 4.768-1.233"/><path fill="#14b6eb" d="M871.197 1414.103c2.138 0 3.973.501 4.756 1.22a3.62 3.62 0 0 0 .408-1.668c0-2.367-2.312-4.48-5.164-4.48-2.85 0-5.164 2.113-5.164 4.48 0 .591.146 1.157.408 1.668.784-.719 2.62-1.22 4.756-1.22"/><path fill="#15b9ed" d="M871.196 1414.108c2.132 0 3.962.497 4.743 1.21a3.57 3.57 0 0 0 .407-1.653c0-2.344-2.306-4.444-5.15-4.444-2.842 0-5.15 2.1-5.15 4.444 0 .585.146 1.145.408 1.652.78-.712 2.612-1.209 4.742-1.209"/><path fill="#15bdef" d="M871.195 1414.114c2.126 0 3.95.492 4.73 1.196a3.5 3.5 0 0 0 .406-1.635c0-2.319-2.3-4.408-5.136-4.408-2.834 0-5.135 2.09-5.135 4.408 0 .58.145 1.134.406 1.635.779-.704 2.605-1.196 4.729-1.196"/><path fill="#19c0f1" d="M871.195 1414.12c2.12 0 3.94.487 4.716 1.184a3.447 3.447 0 0 0 .405-1.619c0-2.294-2.292-4.371-5.121-4.371-2.827 0-5.122 2.076-5.122 4.371 0 .574.146 1.123.405 1.619.777-.697 2.598-1.184 4.717-1.184"/><path fill="#1ec2f2" d="M871.194 1414.126c2.114 0 3.929.48 4.703 1.17.262-.49.404-1.032.404-1.6 0-2.271-2.286-4.335-5.107-4.335-2.819 0-5.107 2.065-5.107 4.336 0 .566.144 1.11.403 1.6.775-.69 2.591-1.171 4.704-1.171"/><path fill="#23c4f4" d="M871.193 1414.132c2.108 0 3.92.476 4.69 1.159a3.329 3.329 0 0 0 .403-1.584c0-2.248-2.28-4.301-5.093-4.301-2.81 0-5.093 2.053-5.093 4.3 0 .562.144 1.099.403 1.585.772-.683 2.583-1.16 4.69-1.16"/><path fill="#36c6f4" d="M871.193 1414.146c2.106 0 3.913.473 4.684 1.15.26-.481.402-1.014.402-1.573 0-2.232-2.276-4.273-5.086-4.273-2.807 0-5.086 2.04-5.086 4.273 0 .558.144 1.092.402 1.574.771-.678 2.58-1.151 4.684-1.151"/><path fill="#42c7f4" d="M871.193 1414.159c2.102 0 3.908.47 4.677 1.142.26-.478.402-1.007.402-1.562 0-2.219-2.273-4.248-5.079-4.248-2.804 0-5.08 2.03-5.08 4.247 0 .554.145 1.084.402 1.563.771-.672 2.577-1.142 4.678-1.142"/><path fill="#4cc9f5" d="M871.193 1414.171c2.1 0 3.902.467 4.671 1.136a3.232 3.232 0 0 0 .401-1.553c0-2.202-2.27-4.22-5.072-4.22-2.8 0-5.073 2.017-5.073 4.22 0 .55.144 1.078.401 1.554.77-.67 2.573-1.137 4.672-1.137"/><path fill="#55caf5" d="M871.193 1414.185c2.097 0 3.897.464 4.665 1.129.26-.474.4-.997.4-1.544 0-2.188-2.267-4.193-5.065-4.193-2.796 0-5.065 2.005-5.065 4.194 0 .547.143 1.07.4 1.543.77-.666 2.57-1.13 4.665-1.13"/><path fill="#5dccf5" d="M871.193 1414.198c2.094 0 3.892.461 4.658 1.121.26-.469.4-.989.4-1.532 0-2.174-2.264-4.169-5.058-4.169-2.792 0-5.058 1.995-5.058 4.17 0 .541.143 1.062.4 1.531.767-.66 2.566-1.12 4.658-1.12"/><path fill="#68cef6" d="M871.193 1414.211c2.091 0 3.887.458 4.652 1.114.26-.467.4-.983.4-1.523 0-2.159-2.262-4.14-5.052-4.14-2.789 0-5.052 1.981-5.052 4.14 0 .54.143 1.056.4 1.523.766-.656 2.563-1.114 4.652-1.114"/><path fill="#70d0f6" d="M871.193 1414.224c2.088 0 3.88.454 4.645 1.106.258-.463.4-.975.4-1.512 0-2.144-2.259-4.115-5.045-4.115-2.785 0-5.045 1.971-5.045 4.115 0 .536.143 1.05.398 1.512.766-.652 2.56-1.106 4.647-1.106"/><path fill="#76d1f7" d="M871.193 1414.238c2.086 0 3.875.452 4.64 1.099.257-.46.397-.969.397-1.502 0-2.13-2.255-4.089-5.037-4.089s-5.039 1.959-5.039 4.089c0 .533.144 1.042.4 1.502.764-.647 2.555-1.099 4.64-1.099"/><path fill="#7cd3f7" d="M871.193 1414.251c2.082 0 3.871.449 4.633 1.091.258-.456.398-.962.398-1.491 0-2.115-2.252-4.061-5.03-4.061-2.778 0-5.033 1.946-5.033 4.061 0 .529.143 1.035.4 1.491.762-.642 2.551-1.091 4.632-1.091"/><path fill="#83d5f7" d="M871.193 1414.264c2.08 0 3.865.446 4.626 1.084.257-.454.398-.955.398-1.481 0-2.1-2.25-4.036-5.024-4.036-2.775 0-5.025 1.936-5.025 4.036 0 .526.143 1.027.398 1.48.763-.637 2.55-1.083 4.627-1.083"/><path fill="#89d6f8" d="M871.193 1414.277c2.076 0 3.86.443 4.62 1.077.256-.451.397-.95.397-1.471 0-2.086-2.247-4.01-5.017-4.01-2.77 0-5.018 1.924-5.018 4.01 0 .522.142 1.02.397 1.47.761-.633 2.546-1.076 4.621-1.076"/><path fill="#8fd8f8" d="M871.193 1414.29c2.074 0 3.854.44 4.614 1.07.256-.448.396-.942.396-1.46 0-2.072-2.243-3.983-5.01-3.983s-5.01 1.91-5.01 3.983c0 .518.141 1.012.395 1.46.761-.63 2.543-1.07 4.615-1.07"/><path fill="#95daf8" d="M871.193 1414.304c2.071 0 3.85.437 4.608 1.062.255-.444.396-.936.396-1.451 0-2.056-2.24-3.956-5.004-3.956-2.763 0-5.004 1.9-5.004 3.956 0 .515.143 1.007.396 1.45.76-.624 2.54-1.061 4.608-1.061"/><path fill="#9bdcf9" d="M871.193 1414.318c2.068 0 3.843.434 4.601 1.054.255-.441.396-.93.396-1.441 0-2.041-2.238-3.93-4.997-3.93-2.76 0-4.997 1.889-4.997 3.93 0 .51.142 1 .395 1.44.758-.62 2.535-1.053 4.602-1.053"/><path fill="#a0ddf9" d="M871.193 1414.33c2.065 0 3.838.432 4.594 1.047.255-.438.395-.923.395-1.43 0-2.027-2.234-3.903-4.989-3.903-2.756 0-4.99 1.876-4.99 3.903 0 .507.141.992.394 1.43.758-.615 2.532-1.047 4.596-1.047"/><path fill="#a9e0f9" d="M871.193 1414.343c2.062 0 3.833.43 4.588 1.04a2.8 2.8 0 0 0 .394-1.42c0-2.013-2.23-3.876-4.982-3.876-2.752 0-4.984 1.863-4.984 3.876 0 .504.142.985.394 1.42.757-.61 2.53-1.04 4.59-1.04"/><path fill="#afe2fa" d="M871.193 1414.357c2.06 0 3.828.424 4.582 1.032.253-.432.394-.909.394-1.41 0-1.998-2.228-3.85-4.976-3.85-2.749 0-4.977 1.852-4.977 3.85 0 .501.141.978.393 1.41.757-.608 2.526-1.032 4.584-1.032"/><path fill="#b4e4fa" d="M871.193 1414.37c2.056 0 3.823.422 4.576 1.024.252-.429.392-.902.392-1.399 0-1.983-2.225-3.824-4.968-3.824-2.744 0-4.97 1.841-4.97 3.824 0 .497.141.97.392 1.4.756-.603 2.523-1.025 4.578-1.025"/><path fill="#bae6fb" d="M871.194 1414.383c2.053 0 3.816.42 4.568 1.017.253-.426.394-.896.394-1.389 0-1.969-2.223-3.796-4.962-3.796-2.742 0-4.964 1.827-4.964 3.796 0 .494.141.963.392 1.39.754-.599 2.519-1.018 4.572-1.018"/><path fill="#bfe8fb" d="M871.194 1414.397c2.051 0 3.811.415 4.562 1.008.252-.421.393-.889.393-1.378 0-1.954-2.22-3.771-4.955-3.771-2.738 0-4.957 1.817-4.957 3.771 0 .49.141.957.391 1.378.754-.593 2.516-1.008 4.566-1.008"/><path fill="#c4e9fb" d="M871.194 1414.41c2.047 0 3.805.413 4.556 1.001.251-.419.391-.882.391-1.368 0-1.939-2.216-3.743-4.947-3.743-2.735 0-4.95 1.804-4.95 3.743 0 .487.141.949.39 1.368.753-.588 2.513-1.001 4.56-1.001"/><path fill="#caebfc" d="M871.193 1414.423c2.045 0 3.801.41 4.55.995.252-.416.392-.876.392-1.36 0-1.923-2.214-3.716-4.942-3.716-2.73 0-4.943 1.793-4.943 3.717 0 .483.141.943.391 1.359.752-.585 2.508-.995 4.552-.995"/><path fill="#cfedfc" d="M871.193 1414.437c2.043 0 3.795.406 4.544.987.251-.413.39-.87.39-1.348 0-1.91-2.21-3.692-4.934-3.692-2.726 0-4.936 1.782-4.936 3.692 0 .479.14.935.39 1.348.751-.581 2.505-.987 4.546-.987"/><path fill="#d4effc" d="M871.194 1414.449c2.038 0 3.789.404 4.537.98.25-.41.39-.862.39-1.338 0-1.895-2.208-3.664-4.927-3.664-2.723 0-4.93 1.769-4.93 3.664 0 .476.14.928.389 1.338.75-.576 2.503-.98 4.541-.98"/><path fill="#daf1fd" d="M871.194 1414.463c2.036 0 3.784.4 4.53.972.25-.406.39-.855.39-1.327 0-1.88-2.204-3.64-4.92-3.64-2.72 0-4.923 1.76-4.923 3.64 0 .472.14.92.388 1.327.749-.571 2.499-.972 4.535-.972"/><path fill="#e2f4fd" d="M871.194 1414.476c2.032 0 3.779.397 4.524.964.25-.403.389-.849.389-1.317 0-1.866-2.201-3.61-4.913-3.61-2.716 0-4.916 1.744-4.916 3.61 0 .47.14.914.388 1.317.748-.567 2.495-.964 4.528-.964"/><path fill="#e7f6fd" d="M871.194 1414.489c2.03 0 3.774.396 4.518.957.249-.4.388-.842.388-1.306 0-1.851-2.198-3.585-4.906-3.585-2.712 0-4.91 1.734-4.91 3.585 0 .465.14.907.388 1.306.747-.561 2.492-.957 4.522-.957"/><path fill="#ecf8fe" d="M871.194 1414.503c2.027 0 3.768.39 4.511.95.249-.397.388-.836.388-1.297 0-1.837-2.195-3.56-4.899-3.56-2.708 0-4.902 1.723-4.902 3.56 0 .462.139.9.387 1.297.745-.56 2.488-.95 4.515-.95"/><path fill="#f3fafe" d="M871.194 1414.516c2.025 0 3.762.39 4.505.942.248-.394.387-.83.387-1.287 0-1.82-2.192-3.53-4.892-3.53-2.705 0-4.895 1.71-4.895 3.53 0 .458.139.893.386 1.287.745-.553 2.485-.942 4.509-.942"/><path fill="#f9fdff" d="M871.194 1414.528c2.021 0 3.757.386 4.498.935.248-.39.388-.822.388-1.276 0-1.807-2.189-3.505-4.886-3.505-2.702 0-4.889 1.698-4.889 3.505 0 .455.14.886.386 1.276.744-.549 2.482-.935 4.503-.935"/><path fill="#fff" d="M871.194 1414.542c2.019 0 3.752.383 4.492.927.248-.387.387-.816.387-1.266 0-1.792-2.186-3.479-4.879-3.479-2.698 0-4.882 1.687-4.882 3.48 0 .45.139.878.385 1.265.743-.544 2.479-.927 4.497-.927"/></g><path fill="#0085cb" d="M74.985 92.776c-24.225 0-46.723 4.1-65.273 11.064C20.831 128.82 45.88 146.204 75 146.204c29.12 0 54.154-17.384 65.3-42.364-18.563-6.965-41.075-11.064-65.314-11.064" style="stroke-width:13.7099"/><path fill="#fff" d="M545.849 56.999c4.921 6.183 13.984 15.78 27.53 23.8l8.294-11.75s-18.975-8.609-30.861-19.906c1.288-2.413 6.183-13.573 6.484-22.566.151-3.675-2.783-3.702-3.66-3.702h-17.658s2.344.919 2.344 5.196c0 5.086-1.056 30.861-32.068 49.287l3.73 5.95c17.905-7.17 28.68-16.671 35.865-26.31M396.475 32.715h24.596c.644 0 2.467 0 2.372 2.11-.782 9.94-5.416 34.687-32.41 57.514l5.1 6.21c13.38-8.897 23.923-18.782 31.752-29.9 4.812 6.443 13.655 16.958 25.843 26.322l10.337-11.297s-20.14-13.216-30.271-24.595c1.864-3.524 7.54-15.657 8.335-26.392h22.196V22.624h-67.85zM506.304 47.048h-17.302V23.536c0-2.51-1.659-3.853-5.388-3.853H471.74s1.426 1.097 1.426 9.392v103.674h15.835V57.235h17.302zM549.661 119.786V96.191c0-2.207-.63-3.523-3.208-3.523h-14.765c1.796 1.48 1.645 5.69 1.645 5.69v26.871c.178 2.495 1.385 6.8 10.447 7.157h65.972v-8.857H553.72c-3.634.233-3.976-1.55-4.059-3.743M607.236 23.45c0-2.48-1.673-3.852-5.36-3.852h-11.9s1.411 1.11 1.411 9.392v70.167h15.85V57.259h16.63v-9.693h-16.63zM663.471 56.999c4.922 6.183 13.97 15.78 27.53 23.8l8.28-11.75s-18.974-8.609-30.86-19.906c1.288-2.413 6.183-13.573 6.498-22.566.137-3.675-2.783-3.702-3.674-3.702h-17.658s2.344.919 2.344 5.196c0 5.086-1.056 30.861-32.068 49.287l3.743 5.95c17.892-7.17 28.681-16.671 35.865-26.31M667.273 119.786V96.191c0-2.207-.63-3.523-3.194-3.523h-14.78c1.81 1.48 1.646 5.69 1.646 5.69v26.871c.192 2.495 1.384 6.8 10.46 7.157h65.959v-8.857H671.33c-3.633.233-3.976-1.55-4.058-3.743M724.848 47.57V23.452c0-2.495-1.673-3.852-5.36-3.852h-11.9s1.411 1.097 1.411 9.391v70.154h15.849V57.262M170.61 96.07h44.036v39.758h16.946V96.07h44.104v-9.665H170.61ZM223.125 76.049c21.414 0 38.799-11.681 38.799-29.024 0-17.343-17.385-29.024-38.8-29.024-21.442 0-38.826 11.68-38.826 29.024 0 17.343 17.384 29.024 38.826 29.024m0-48.122c11.722 0 21.237 7.43 21.237 19.125s-9.514 19.112-21.236 19.112c-11.764 0-21.278-7.417-21.278-19.112 0-11.694 9.514-19.125 21.277-19.125M371.788 20.038h-11.832s1.398 1.083 1.398 9.378l.014 55.785c0 8.473-13.422 8.281-13.422 8.281h-38.812c-3.633.247-4.004-1.563-4.086-3.743V66.27h33.576c3.729 0 4.551-1.33 4.551-3.826v-35.11c0-2.524-.822-3.84-4.565-3.84h-51.85v9.337l39.922-.014v24.13h-39.594s1.426 1.781 1.426 6.69v32.012c.178 2.51 1.385 6.828 10.502 7.184h45.49s13.23.398 16.862-3.14v33.124h15.822V23.863c0-2.495-1.646-3.825-5.402-3.825M739.857 21.531h60.626V32.76h-40.335v14.258h40.335v8.418h-40.568v16.603h47.491s10.735 2.797 10.735-9.35v-39.28s-1.193-3.989-3.099-4.208h16.466s2.153.452 2.386 4.209c.233 3.743 0 24.54 0 24.54h16.712v11.133h-17.439v26.515h-15.026v-6.54s-3.798 2.564-9.542 2.797c-5.73.233-50.823 0-50.823 0s-13.147 2.81-13.614-10.283c-.48-13.106 0-40.444 0-40.444s-.713-5.374-4.305-9.597M759.368 93.486v8.884h58.802v31.821h15.136V99.546s.96-6.252-6.65-6.06z" style="fill:#0062ac;fill-opacity:1;stroke-width:13.7099"/></svg>