<svg xmlns="http://www.w3.org/2000/svg" xml:space="preserve" width="1219.0968" height="207.42227" viewBox="0 0 1219.0968 207.42227"><defs><clipPath id="a" clipPathUnits="userSpaceOnUse"><path d="M210.865 65.525c0-5.401 4.376-9.777 9.78-9.777 5.4 0 9.778 4.379 9.778 9.777a9.78 9.78 0 0 1-9.781 9.78c-5.401 0-9.777-4.377-9.777-9.78"/></clipPath></defs><g style="stroke-width:.131924"><g style="stroke-width:.131924"><path d="M315.432 65.323h-15.117v1.397h15.117z" style="fill:#0067ac;fill-opacity:1;fill-rule:nonzero;stroke:none;stroke-width:.131924" transform="matrix(10.10682 0 0 -10.10682 -2126.299 765.617)"/><g style="stroke-width:.131924"><path d="M0 0c1.945 0 3.552-.894 3.552-2.361S1.945-4.72 0-4.72c-1.942 0-3.55.891-3.55 2.359S-1.942 0 0 0m0-6.013c3.46 0 6.161 1.473 6.161 3.652C6.161-.179 3.46 1.291 0 1.291c-3.458 0-6.16-1.47-6.16-3.652 0-2.179 2.702-3.652 6.16-3.652" style="fill:#0067ac;fill-opacity:1;fill-rule:nonzero;stroke:none;stroke-width:.131924" transform="matrix(10.10682 0 0 -10.10682 985.302 125.942)"/></g><g style="stroke-width:.131924"><path d="M0 0s-3.306.627-5.366 1.763c.344.41.641.881.813 1.315h4.159v1.376h-12.115V3.078h4.647c.09 0 .238-.071.195-.309-.066-.359-1.078-2.48-5.686-3.348l.375-.983c2.911.239 5.16 1.276 6.655 2.437.873-.663 2.777-1.918 5.464-2.604z" style="fill:#0067ac;fill-opacity:1;fill-rule:nonzero;stroke:none;stroke-width:.131924" transform="matrix(10.10682 0 0 -10.10682 1051.09 65.795)"/></g><g style="stroke-width:.131924"><path d="M0 0h2.129c.371 0 .458-.19.458-.505v-2.357c.013-.317.067-.573.586-.54h8.374v-1.247H1.745c-1.311.05-1.483.675-1.51 1.032V-.82S.259-.213 0 0" style="fill:#0067ac;fill-opacity:1;fill-rule:nonzero;stroke:none;stroke-width:.131924" transform="matrix(10.10682 0 0 -10.10682 1102.393 132.861)"/></g><g style="stroke-width:.131924"><path d="M0 0h-1.71s.202-.157.202-1.354l.001-4.678h-2.265c.31.503.291 1.285.291 1.285v3.503c0 .365-.272.756-.857.756h-7.459v-1.409h6.094V-5.11s.046-.922-.744-.922h-6.585v-1.344h2.671v-3.152h2.338v3.152h6.516v-1.445h-4.118v-1.347h4.118v-2.042H.777V-.556C.777-.193.54 0 0 0" style="fill:#0067ac;fill-opacity:1;fill-rule:nonzero;stroke:none;stroke-width:.131924" transform="matrix(10.10682 0 0 -10.10682 1209.655 15.734)"/></g><g style="stroke-width:.131924"><path d="M0 0h6.361v-5.745h2.45V0h6.369v1.396H0Z" style="fill:#0067ac;fill-opacity:1;fill-rule:nonzero;stroke:none;stroke-width:.131924" transform="matrix(10.10682 0 0 -10.10682 243.3 126.84)"/></g><g style="stroke-width:.131924"><path d="M0 0c1.695 0 3.066-1.071 3.066-2.762S1.695-5.523 0-5.523c-1.7 0-3.075 1.069-3.075 2.761C-3.075-1.071-1.7 0 0 0m0-6.949c3.094 0 5.604 1.686 5.604 4.192 0 2.503-2.51 4.191-5.604 4.191-3.1 0-5.612-1.688-5.612-4.191C-5.612-5.263-3.1-6.949 0-6.949" style="fill:#0067ac;fill-opacity:1;fill-rule:nonzero;stroke:none;stroke-width:.131924" transform="matrix(10.10682 0 0 -10.10682 319.984 27.361)"/></g><g style="stroke-width:.131924"><path d="M0 0h-1.715s.204-.158.204-1.357l.002-8.061c0-1.224-1.939-1.195-1.939-1.195h-5.607c-.523-.034-.578.223-.59.539v3.39h4.851c.535 0 .657.194.657.555v5.071c0 .363-.122.555-.659.555h-7.491v-1.349l5.763.001v-3.483h-5.714s.204-.262.204-.967v-4.626c.027-.361.201-.984 1.517-1.035h6.574s1.912-.058 2.434.45v-4.784H.779V-.558C.779-.195.54 0 0 0" style="fill:#0067ac;fill-opacity:1;fill-rule:nonzero;stroke:none;stroke-width:.131924" transform="matrix(10.10682 0 0 -10.10682 537.063 15.804)"/></g><g style="stroke-width:.131924"><path d="M0 0c-.411 0-.572.227-.572.521v1.323h9.358v1.274H-.572v1.838h9.501v1.278H-3.372s.302-.392.302-1.096V-.003c0-.471.356-1.257 1.716-1.257H9.09V0Z" style="fill:#0067ac;fill-opacity:1;fill-rule:nonzero;stroke:none;stroke-width:.131924" transform="matrix(10.10682 0 0 -10.10682 615.973 83.502)"/></g><g style="stroke-width:.131924"><path d="M0 0h6.375v-5.746H8.82V0h6.373v1.395H0Z" style="fill:#0067ac;fill-opacity:1;fill-rule:nonzero;stroke:none;stroke-width:.131924" transform="matrix(10.10682 0 0 -10.10682 569.738 125.923)"/></g><g style="stroke-width:.131924"><path d="M0 0v10.379h2.496v1.475H0v3.926c0 .363-.242.557-.781.557h-1.712s.203-.157.203-1.358V.002Z" style="fill:#0067ac;fill-opacity:1;fill-rule:nonzero;stroke:none;stroke-width:.131924" transform="matrix(10.10682 0 0 -10.10682 875.356 181.057)"/></g><g style="stroke-width:.131924"><path d="m0 0 3.55-.002c.097 0 .36-.007.347-.31-.113-1.436-.783-5.009-4.684-8.304l.735-.899c1.935 1.284 3.46 2.715 4.59 4.319a20 20 0 0 1 3.731-3.801l1.496 1.629s-2.912 1.911-4.377 3.55C5.66-3.304 6.479-1.551 6.597 0h3.204v1.453H0Z" style="fill:#0067ac;fill-opacity:1;fill-rule:nonzero;stroke:none;stroke-width:.131924" transform="matrix(10.10682 0 0 -10.10682 740.246 34.962)"/></g><g style="stroke-width:.131924"><path d="M0 0c0-5.669-4.596-10.264-10.258-10.264-5.667 0-10.262 4.595-10.262 10.264 0 5.666 4.595 10.259 10.262 10.259C-4.596 10.259 0 5.666 0 0" style="fill:#fff;fill-opacity:1;fill-rule:nonzero;stroke:none;stroke-width:.131924" transform="matrix(10.10682 0 0 -10.10682 207.392 103.686)"/></g><g style="stroke-width:.131924"><path d="M0 0c5.4 0 9.777 4.38 9.777 9.778a9.78 9.78 0 0 1-9.779 9.78c-5.401 0-9.778-4.377-9.778-9.78S-5.403 0 0 0" style="fill:#0083ca;fill-opacity:1;fill-rule:nonzero;stroke:none;stroke-width:.131924" transform="matrix(10.10682 0 0 -10.10682 103.718 202.188)"/></g><g clip-path="url(#a)" style="stroke-width:.131924" transform="matrix(10.10682 0 0 -10.10682 -2126.299 765.617)"><g style="stroke-width:.131924"><path d="M0 0c4.298 0 7.98-1.195 9.557-2.901a9.9 9.9 0 0 1 .822 3.96c0 5.61-4.65 10.155-10.379 10.155-5.727 0-10.378-4.546-10.378-10.157 0-1.405.292-2.742.822-3.958C-7.984-1.195-4.296 0 0 0" style="fill:#0083ca;fill-opacity:1;fill-rule:nonzero;stroke:none;stroke-width:.131924" transform="translate(220.683 60.808)"/></g><g style="stroke-width:.131924"><path d="M0 0c-5.708 0-10.345-4.519-10.352-10.081q0-.195.007-.389a9.8 9.8 0 0 1 .812-3.545c1.569 1.689 5.247 2.874 9.533 2.874s7.96-1.185 9.534-2.874a9.7 9.7 0 0 1 .818 3.938C10.345-4.517 5.712 0 0 0" style="fill:#0085cc;fill-opacity:1;fill-rule:nonzero;stroke:none;stroke-width:.131924" transform="translate(220.682 71.936)"/></g><g style="stroke-width:.131924"><path d="M0 0c-5.689 0-10.311-4.489-10.324-10.002q-.002-.196.006-.388a9.6 9.6 0 0 1 .811-3.527c1.564 1.676 5.233 2.853 9.507 2.853 4.277 0 7.94-1.177 9.51-2.853a9.6 9.6 0 0 1 .815 3.918C10.312-4.487 5.691 0 0 0" style="fill:#0087cd;fill-opacity:1;fill-rule:nonzero;stroke:none;stroke-width:.131924" transform="translate(220.68 71.849)"/></g><g style="stroke-width:.131924"><path d="M0 0c-5.67 0-10.278-4.46-10.297-9.926a9.443 9.443 0 0 1 .813-3.89c1.562 1.662 5.221 2.829 9.484 2.829 4.265 0 7.92-1.167 9.485-2.829a9.4 9.4 0 0 1 .812 3.894C10.277-4.458 5.672 0 0 0" style="fill:#0088ce;fill-opacity:1;fill-rule:nonzero;stroke:none;stroke-width:.131924" transform="translate(220.679 71.762)"/></g><g style="stroke-width:.131924"><path d="M0 0c-5.652 0-10.245-4.432-10.272-9.847q-.001-.191.007-.382a9.4 9.4 0 0 1 .805-3.488c1.558 1.651 5.207 2.806 9.46 2.806s7.898-1.155 9.46-2.806a9.4 9.4 0 0 1 .81 3.874C10.242-4.428 5.652.002 0 0" style="fill:#008acf;fill-opacity:1;fill-rule:nonzero;stroke:none;stroke-width:.131924" transform="translate(220.679 71.674)"/></g><g style="stroke-width:.131924"><path d="M0 0c-5.632 0-10.21-4.402-10.244-9.768q0-.192.005-.38a9.2 9.2 0 0 1 .805-3.47c1.552 1.636 5.193 2.783 9.434 2.783 4.242 0 7.878-1.147 9.435-2.783a9.2 9.2 0 0 1 .809 3.853C10.21-4.401 5.634 0 0 0" style="fill:#008cd0;fill-opacity:1;fill-rule:nonzero;stroke:none;stroke-width:.131924" transform="translate(220.677 71.588)"/></g><g style="stroke-width:.131924"><path d="M0 0c-5.612 0-10.174-4.372-10.215-9.689q-.002-.19.005-.378a9.1 9.1 0 0 1 .801-3.451c1.551 1.622 5.18 2.76 9.409 2.76 4.233 0 7.861-1.138 9.412-2.76a9.05 9.05 0 0 1 .803 3.453q.005.189.003.379C10.177-4.37 5.617.003 0 0" style="fill:#008ed2;fill-opacity:1;fill-rule:nonzero;stroke:none;stroke-width:.131924" transform="translate(220.674 71.5)"/></g><g style="stroke-width:.131924"><path d="M0 0c-5.594 0-10.145-4.346-10.19-9.614q-.002-.188.003-.374a8.95 8.95 0 0 1 .801-3.43c1.544 1.606 5.167 2.734 9.386 2.734s7.838-1.128 9.385-2.734a8.9 8.9 0 0 1 .804 3.809C10.142-4.344 5.596 0 0 0" style="fill:#0090d3;fill-opacity:1;fill-rule:nonzero;stroke:none;stroke-width:.131924" transform="translate(220.674 71.415)"/></g><g style="stroke-width:.131924"><path d="M0 0c-5.576 0-10.11-4.316-10.164-9.535q-.002-.189.004-.372a8.8 8.8 0 0 1 .799-3.413c1.54 1.593 5.153 2.712 9.361 2.712s7.818-1.119 9.361-2.712a8.8 8.8 0 0 1 .798 3.415q.006.187.004.376C10.095-4.314 5.576 0 0 0" style="fill:#0091d4;fill-opacity:1;fill-rule:nonzero;stroke:none;stroke-width:.131924" transform="translate(220.673 71.329)"/></g><g style="stroke-width:.131924"><path d="M0 0c-5.556 0-10.076-4.291-10.137-9.46q-.001-.185.005-.369a8.6 8.6 0 0 1 .797-3.394c1.536 1.581 5.139 2.69 9.335 2.69 4.198 0 7.797-1.109 9.338-2.69a8.7 8.7 0 0 1 .796 3.397q.005.185.003.371C10.074-4.286 5.558 0 0 0" style="fill:#0093d5;fill-opacity:1;fill-rule:nonzero;stroke:none;stroke-width:.131924" transform="translate(220.671 71.243)"/></g><g style="stroke-width:.131924"><path d="M0 0c-5.538 0-10.043-4.26-10.11-9.38a8.55 8.55 0 0 1 .797-3.741c1.534 1.566 5.126 2.666 9.313 2.666 4.186 0 7.777-1.1 9.312-2.666a8.6 8.6 0 0 1 .796 3.747C10.04-4.256 5.539 0 0 0" style="fill:#0095d7;fill-opacity:1;fill-rule:nonzero;stroke:none;stroke-width:.131924" transform="translate(220.67 71.155)"/></g><g style="stroke-width:.131924"><path d="M0 0c-5.518 0-10.008-4.232-10.082-9.304q-.002-.183.003-.364a8.5 8.5 0 0 1 .792-3.355c1.53 1.552 5.113 2.641 9.287 2.641 4.177 0 7.758-1.089 9.289-2.641a8.45 8.45 0 0 1 .794 3.724C9.993-4.229 5.521 0 0 0" style="fill:#0097d8;fill-opacity:1;fill-rule:nonzero;stroke:none;stroke-width:.131924" transform="translate(220.668 71.069)"/></g><g style="stroke-width:.131924"><path d="M0 0c-5.501 0-9.963-4.202-10.055-9.225a8.307 8.307 0 0 1 .791-3.698c1.525 1.54 5.099 2.619 9.264 2.619s7.737-1.079 9.263-2.619a8.3 8.3 0 0 1 .793 3.704C9.962-4.198 5.5.001 0 0" style="fill:#0099d9;fill-opacity:1;fill-rule:nonzero;stroke:none;stroke-width:.131924" transform="translate(220.668 70.98)"/></g><g style="stroke-width:.131924"><path d="M0 0c-5.481 0-9.943-4.175-10.029-9.149a8.166 8.166 0 0 1 .791-3.676C-7.719-11.3-4.153-10.229 0-10.229s7.717-1.071 9.238-2.596a8.1 8.1 0 0 1 .791 3.683C9.939-4.17 5.482 0 0 0" style="fill:#009bda;fill-opacity:1;fill-rule:nonzero;stroke:none;stroke-width:.131924" transform="translate(220.666 70.896)"/></g><g style="stroke-width:.131924"><path d="M0 0c-5.462 0-9.908-4.145-10.002-9.069a8.114 8.114 0 0 1 .789-3.655C-7.698-11.211-4.141-10.15 0-10.15c4.143 0 7.697-1.061 9.215-2.574a8.06 8.06 0 0 1 .787 3.663C9.905-4.141 5.463.002 0 0" style="fill:#009ddc;fill-opacity:1;fill-rule:nonzero;stroke:none;stroke-width:.131924" transform="translate(220.665 70.807)"/></g><g style="stroke-width:.131924"><path d="M0 0c-5.442 0-9.886-4.117-9.976-8.992a7.983 7.983 0 0 1 .787-3.634c1.511 1.5 5.058 2.549 9.189 2.549s7.676-1.049 9.19-2.549a8 8 0 0 1 .784 3.641C9.872-4.113 5.443 0 0 0" style="fill:#009fdd;fill-opacity:1;fill-rule:nonzero;stroke:none;stroke-width:.131924" transform="translate(220.664 70.722)"/></g><g style="stroke-width:.131924"><path d="M0 0c-5.425 0-9.842-4.089-9.95-8.915a7.875 7.875 0 0 1 .784-3.612C-7.658-11.041-4.12-10.001 0-10.001s7.654-1.04 9.165-2.526a7.8 7.8 0 0 1 .783 3.62C9.836-4.084 5.424 0 0 0" style="fill:#00a1de;fill-opacity:1;fill-rule:nonzero;stroke:none;stroke-width:.131924" transform="translate(220.663 70.635)"/></g><g style="stroke-width:.131924"><path d="M0 0c-5.405 0-9.809-4.06-9.921-8.839a7.733 7.733 0 0 1 .779-3.588c1.505 1.47 5.033 2.5 9.142 2.5 4.11 0 7.634-1.03 9.141-2.5a7.7 7.7 0 0 1 .779 3.599C9.802-4.055 5.406 0 0 0" style="fill:#00a3e0;fill-opacity:1;fill-rule:nonzero;stroke:none;stroke-width:.131924" transform="translate(220.661 70.548)"/></g><g style="stroke-width:.131924"><path d="M0 0c-5.387 0-9.775-4.032-9.895-8.759a7.625 7.625 0 0 1 .778-3.569C-7.616-10.87-4.098-9.85 0-9.85c4.097 0 7.614-1.02 9.116-2.478.486.99.759 2.081.78 3.221q0 .18-.003.355C9.755-4.025 5.386 0 0 0" style="fill:#00a5e1;fill-opacity:1;fill-rule:nonzero;stroke:none;stroke-width:.131924" transform="translate(220.66 70.461)"/></g><g style="stroke-width:.131924"><path d="M0 0c-5.367 0-9.742-4.001-9.868-8.681a7.573 7.573 0 0 1 .776-3.546C-7.595-10.784-4.085-9.772 0-9.772c4.087 0 7.594-1.012 9.091-2.455a7.47 7.47 0 0 1 .776 3.556C9.735-3.998 5.368 0 0 0" style="fill:#00a7e2;fill-opacity:1;fill-rule:nonzero;stroke:none;stroke-width:.131924" transform="translate(220.659 70.373)"/></g><g style="stroke-width:.131924"><path d="M0 0c-5.349 0-9.707-3.975-9.842-8.605q-.004-.172-.003-.343a7.4 7.4 0 0 1 .778-3.182C-7.575-10.699-4.076-9.699 0-9.699c4.075 0 7.573-1 9.066-2.431.487.98.759 2.056.778 3.185q.001.174-.005.349C9.7-3.968 5.349 0 0 0" style="fill:#00a9e3;fill-opacity:1;fill-rule:nonzero;stroke:none;stroke-width:.131924" transform="translate(220.657 70.288)"/></g><g style="stroke-width:.131924"><path d="M0 0c-5.33 0-9.674-3.946-9.816-8.525q-.003-.171-.002-.342a7.3 7.3 0 0 1 .773-3.162C-7.555-10.613-4.065-9.62 0-9.62s7.553-.993 9.042-2.409a7.3 7.3 0 0 1 .77 3.513C9.666-3.939 5.33.002 0 0" style="fill:#00abe5;fill-opacity:1;fill-rule:nonzero;stroke:none;stroke-width:.131924" transform="translate(220.657 70.2)"/></g><g style="stroke-width:.131924"><path d="M0 0c-5.311 0-9.651-3.916-9.788-8.449q-.004-.17-.002-.339a7.2 7.2 0 0 1 .771-3.143C-7.535-10.527-4.053-9.546 0-9.546c4.054 0 7.533-.981 9.017-2.385a7.2 7.2 0 0 1 .769 3.492C9.622-3.912 5.31 0 0 0" style="fill:#00ade6;fill-opacity:1;fill-rule:nonzero;stroke:none;stroke-width:.131924" transform="translate(220.655 70.115)"/></g><g style="stroke-width:.131924"><path d="M0 0c-5.29 0-9.606-3.89-9.759-8.371q-.005-.167-.003-.337a7.1 7.1 0 0 1 .769-3.125C-7.513-10.442-4.041-9.47 0-9.47c4.043 0 7.515-.972 8.995-2.363A7.1 7.1 0 0 1 9.76-8.36C9.601-3.883 5.293 0 0 0" style="fill:#00afe7;fill-opacity:1;fill-rule:nonzero;stroke:none;stroke-width:.131924" transform="translate(220.652 70.028)"/></g><g style="stroke-width:.131924"><path d="M0 0c-5.271 0-9.573-3.859-9.731-8.294q-.007-.166-.005-.332a7 7 0 0 1 .767-3.107C-7.492-10.356-4.03-9.395 0-9.395c4.032 0 7.495-.961 8.971-2.338a6.95 6.95 0 0 1 .762 3.451C9.568-3.854 5.273 0 0 0" style="fill:#00b2e9;fill-opacity:1;fill-rule:nonzero;stroke:none;stroke-width:.131924" transform="translate(220.65 69.94)"/></g><g style="stroke-width:.131924"><path d="M0 0c-5.253 0-9.539-3.83-9.707-8.215a6.88 6.88 0 0 1 .763-3.418C-7.473-10.27-4.019-9.316 0-9.316c4.022 0 7.473-.954 8.945-2.317a6.85 6.85 0 0 1 .761 3.43C9.521-3.823 5.254.002 0 0" style="fill:#00b4ea;fill-opacity:1;fill-rule:nonzero;stroke:none;stroke-width:.131924" transform="translate(220.65 69.853)"/></g><g style="stroke-width:.131924"><path d="M0 0c-5.233 0-9.505-3.803-9.679-8.138a6.777 6.777 0 0 1 .759-3.396C-7.45-10.186-4.007-9.242 0-9.242c4.011 0 7.454-.944 8.921-2.292a6.76 6.76 0 0 1 .759 3.407C9.5-3.797 5.235 0 0 0" style="fill:#00b6eb;fill-opacity:1;fill-rule:nonzero;stroke:none;stroke-width:.131924" transform="translate(220.648 69.768)"/></g><g style="stroke-width:.131924"><path d="M0 0c-5.217 0-9.472-3.773-9.653-8.06a6.734 6.734 0 0 1 .757-3.376C-7.431-10.1-3.998-9.168 0-9.168s7.433-.932 8.895-2.268a6.65 6.65 0 0 1 .757 3.386C9.465-3.768 5.216 0 0 0" style="fill:#00b9ed;fill-opacity:1;fill-rule:nonzero;stroke:none;stroke-width:.131924" transform="translate(220.648 69.681)"/></g><g style="stroke-width:.131924"><path d="M0 0c-5.196 0-9.439-3.747-9.624-7.983a6.602 6.602 0 0 1 .752-3.354C-7.41-10.017-3.986-9.091 0-9.091c3.987 0 7.414-.926 8.872-2.246a6.55 6.55 0 0 1 .754 3.364C9.432-3.738 5.197 0 0 0" style="fill:#07bbee;fill-opacity:1;fill-rule:nonzero;stroke:none;stroke-width:.131924" transform="translate(220.646 69.595)"/></g><g style="stroke-width:.131924"><path d="M0 0c-5.177 0-9.415-3.717-9.599-7.906a6.483 6.483 0 0 1 .752-3.33C-7.39-9.929-3.975-9.015 0-9.015c3.976 0 7.393-.914 8.848-2.221a6.44 6.44 0 0 1 .75 3.343C9.398-3.71 5.178 0 0 0" style="fill:#0fbdef;fill-opacity:1;fill-rule:nonzero;stroke:none;stroke-width:.131924" transform="translate(220.645 69.507)"/></g><g style="stroke-width:.131924"><path d="M0 0c-5.159 0-9.372-3.69-9.571-7.828a6.388 6.388 0 0 1 .749-3.311C-7.37-9.845-3.963-8.941 0-8.941c3.966 0 7.372-.904 8.823-2.198a6.37 6.37 0 0 1 .749 3.323C9.373-3.683 5.159 0 0 0" style="fill:#19c0f1;fill-opacity:1;fill-rule:nonzero;stroke:none;stroke-width:.131924" transform="translate(220.643 69.422)"/></g><g style="stroke-width:.131924"><path d="M0 0c3.954 0 7.352-.893 8.798-2.176.49.911.754 1.92.754 2.973 0 4.216-4.274 8.065-9.552 8.065-5.271 0-9.553-3.849-9.553-8.065 0-1.053.268-2.063.755-2.973C-7.35-.893-3.954 0 0 0" style="fill:#1fc4f4;fill-opacity:1;fill-rule:nonzero;stroke:none;stroke-width:.131924" transform="translate(220.642 60.471)"/></g><g style="stroke-width:.131924"><path d="M0 0c3.948 0 7.341-.888 8.784-2.162.489.906.755 1.906.755 2.955C9.539 4.979 5.27 8.808 0 8.808c-5.266 0-9.542-3.829-9.542-8.015a6.2 6.2 0 0 1 .756-2.955C-7.34-.888-3.949 0 0 0" style="fill:#33c6f4;fill-opacity:1;fill-rule:nonzero;stroke:none;stroke-width:.131924" transform="translate(220.643 60.447)"/></g><g style="stroke-width:.131924"><path d="M0 0c3.943 0 7.331-.883 8.774-2.147.488.9.753 1.893.753 2.933 0 4.161-4.264 7.968-9.527 7.968-5.258 0-9.527-3.807-9.527-7.968 0-1.04.268-2.035.753-2.933C-7.329-.883-3.942 0 0 0" style="fill:#3fc7f4;fill-opacity:1;fill-rule:nonzero;stroke:none;stroke-width:.131924" transform="translate(220.642 60.421)"/></g><g style="stroke-width:.131924"><path d="M0 0c3.939 0 7.321-.876 8.761-2.132.488.895.753 1.88.753 2.914 0 4.133-4.258 7.917-9.514 7.917-5.251 0-9.514-3.784-9.514-7.917 0-1.033.268-2.022.751-2.914C-7.32-.876-3.938 0 0 0" style="fill:#4ac8f5;fill-opacity:1;fill-rule:nonzero;stroke:none;stroke-width:.131924" transform="translate(220.642 60.396)"/></g><g style="stroke-width:.131924"><path d="M0 0c3.933 0 7.312-.873 8.751-2.12.484.888.75 1.869.75 2.894 0 4.107-4.252 7.868-9.501 7.868-5.244 0-9.501-3.761-9.501-7.868 0-1.025.268-2.006.75-2.894C-7.31-.873-3.932 0 0 0" style="fill:#54caf5;fill-opacity:1;fill-rule:nonzero;stroke:none;stroke-width:.131924" transform="translate(220.642 60.372)"/></g><g style="stroke-width:.131924"><path d="M0 0c3.927 0 7.301-.866 8.737-2.105.486.881.75 1.857.75 2.876 0 4.078-4.245 7.818-9.487 7.818-5.238 0-9.488-3.74-9.488-7.818a5.94 5.94 0 0 1 .749-2.876C-7.3-.866-3.926 0 0 0" style="fill:#5dccf5;fill-opacity:1;fill-rule:nonzero;stroke:none;stroke-width:.131924" transform="translate(220.643 60.347)"/></g><g style="stroke-width:.131924"><path d="M0 0c3.923 0 7.291-.859 8.726-2.09a5.86 5.86 0 0 1 .75 2.856c0 4.05-4.241 7.767-9.476 7.767-5.229 0-9.476-3.717-9.476-7.767a5.9 5.9 0 0 1 .749-2.858C-7.29-.859-3.92-.001 0 0" style="fill:#64cdf6;fill-opacity:1;fill-rule:nonzero;stroke:none;stroke-width:.131924" transform="translate(220.642 60.322)"/></g><g style="stroke-width:.131924"><path d="M0 0c3.917 0 7.281-.855 8.714-2.076.485.869.749 1.83.749 2.837C9.463 4.783 5.227 8.48 0 8.48c-5.224 0-9.463-3.697-9.463-7.719 0-1.007.266-1.968.746-2.837C-7.28-.855-3.915 0 0 0" style="fill:#6dcff6;fill-opacity:1;fill-rule:nonzero;stroke:none;stroke-width:.131924" transform="translate(220.642 60.296)"/></g><g style="stroke-width:.131924"><path d="M0 0c3.912 0 7.271-.85 8.703-2.063.481.863.747 1.817.747 2.816C9.45 4.75 5.219 8.424 0 8.424c-5.216 0-9.449-3.674-9.449-7.671 0-.999.265-1.954.745-2.816C-7.27-.85-3.91-.002 0 0" style="fill:#73d1f6;fill-opacity:1;fill-rule:nonzero;stroke:none;stroke-width:.131924" transform="translate(220.642 60.273)"/></g><g style="stroke-width:.131924"><path d="M0 0c3.906 0 7.261-.843 8.69-2.048A5.7 5.7 0 0 1 9.437.75c0 3.968-4.224 7.619-9.437 7.619-5.209 0-9.437-3.651-9.437-7.619 0-.993.267-1.941.745-2.8C-7.26-.843-3.906-.001 0 0" style="fill:#7ad2f7;fill-opacity:1;fill-rule:nonzero;stroke:none;stroke-width:.131924" transform="translate(220.642 60.247)"/></g><g style="stroke-width:.131924"><path d="M0 0c3.901 0 7.251-.838 8.68-2.035.48.851.744 1.793.744 2.779 0 3.941-4.218 7.571-9.424 7.571-5.203 0-9.424-3.63-9.424-7.571 0-.986.264-1.929.743-2.779C-7.25-.838-3.9-.002 0 0" style="fill:#81d4f7;fill-opacity:1;fill-rule:nonzero;stroke:none;stroke-width:.131924" transform="translate(220.642 60.223)"/></g><g style="stroke-width:.131924"><path d="M0 0c3.896 0 7.241-.832 8.667-2.021.479.847.744 1.782.744 2.759 0 3.914-4.213 7.521-9.411 7.521-5.196 0-9.412-3.608-9.412-7.521 0-.977.266-1.913.743-2.759C-7.241-.832-3.894-.001 0 0" style="fill:#88d6f8;fill-opacity:1;fill-rule:nonzero;stroke:none;stroke-width:.131924" transform="translate(220.642 60.198)"/></g><g style="stroke-width:.131924"><path d="M0 0c3.89 0 7.23-.826 8.655-2.007.479.842.743 1.77.743 2.741C9.398 4.62 5.19 8.206 0 8.206c-5.188 0-9.398-3.586-9.398-7.472 0-.973.264-1.9.742-2.741C-7.231-.826-3.889 0 0 0" style="fill:#8fd8f8;fill-opacity:1;fill-rule:nonzero;stroke:none;stroke-width:.131924" transform="translate(220.642 60.172)"/></g><g style="stroke-width:.131924"><path d="M0 0c3.884 0 7.219-.82 8.643-1.99.477.832.741 1.753.741 2.718 0 3.859-4.2 7.421-9.384 7.421-5.183 0-9.386-3.562-9.386-7.421 0-.965.264-1.887.74-2.72C-7.222-.82-3.885 0 0 0" style="fill:#95daf8;fill-opacity:1;fill-rule:nonzero;stroke:none;stroke-width:.131924" transform="translate(220.643 60.148)"/></g><g style="stroke-width:.131924"><path d="M0 0c3.879 0 7.21-.814 8.631-1.979.476.829.741 1.745.741 2.703 0 3.831-4.195 7.372-9.372 7.372-5.174 0-9.372-3.541-9.372-7.372 0-.96.263-1.874.738-2.703C-7.21-.814-3.878-.001 0 0" style="fill:#9adcf9;fill-opacity:1;fill-rule:nonzero;stroke:none;stroke-width:.131924" transform="translate(220.642 60.122)"/></g><g style="stroke-width:.131924"><path d="M0 0c3.873 0 7.2-.81 8.619-1.965.477.821.74 1.73.74 2.683 0 3.803-4.19 7.32-9.359 7.32-5.167 0-9.359-3.517-9.359-7.32 0-.953.263-1.863.738-2.684C-7.2-.81-3.873-.003 0 0" style="fill:#a1def9;fill-opacity:1;fill-rule:nonzero;stroke:none;stroke-width:.131924" transform="translate(220.642 60.099)"/></g><g style="stroke-width:.131924"><path d="M0 0c3.867 0 7.188-.804 8.606-1.95.476.816.739 1.717.739 2.662C9.345 4.489 5.16 7.984 0 7.984c-5.162 0-9.347-3.495-9.347-7.272 0-.945.263-1.846.737-2.662C-7.191-.804-3.868-.002 0 0" style="fill:#a7dff9;fill-opacity:1;fill-rule:nonzero;stroke:none;stroke-width:.131924" transform="translate(220.643 60.074)"/></g><g style="stroke-width:.131924"><path d="M0 0c3.862 0 7.179-.797 8.595-1.937.475.812.737 1.707.737 2.644 0 3.75-4.179 7.225-9.332 7.225-5.155 0-9.336-3.477-9.336-7.225 0-.937.265-1.832.736-2.644C-7.182-.797-3.863 0 0 0" style="fill:#ade1fa;fill-opacity:1;fill-rule:nonzero;stroke:none;stroke-width:.131924" transform="translate(220.643 60.048)"/></g><g style="stroke-width:.131924"><path d="M0 0c3.858 0 7.168-.791 8.582-1.921.473.806.738 1.692.738 2.625 0 3.72-4.174 7.172-9.32 7.172-5.147 0-9.323-3.452-9.323-7.172 0-.933.262-1.822.736-2.626C-7.172-.791-3.858 0 0 0" style="fill:#b2e3fa;fill-opacity:1;fill-rule:nonzero;stroke:none;stroke-width:.131924" transform="translate(220.643 60.023)"/></g><g style="stroke-width:.131924"><path d="M0 0c3.852 0 7.159-.787 8.57-1.907.473.798.736 1.679.736 2.604 0 3.694-4.167 7.124-9.306 7.124-5.141 0-9.308-3.43-9.308-7.124 0-.925.261-1.806.733-2.606C-7.162-.787-3.852-.001 0 0" style="fill:#b9e5fb;fill-opacity:1;fill-rule:nonzero;stroke:none;stroke-width:.131924" transform="translate(220.643 59.998)"/></g><g style="stroke-width:.131924"><path d="M0 0c3.848 0 7.148-.781 8.559-1.895.471.793.734 1.669.734 2.586 0 3.666-4.161 7.075-9.293 7.075-5.134 0-9.296-3.409-9.296-7.075 0-.918.261-1.794.732-2.586C-7.152-.781-3.847 0 0 0" style="fill:#bee7fb;fill-opacity:1;fill-rule:nonzero;stroke:none;stroke-width:.131924" transform="translate(220.643 59.974)"/></g><g style="stroke-width:.131924"><path d="M0 0c3.841 0 7.138-.774 8.545-1.88.473.785.736 1.655.736 2.567 0 3.638-4.157 7.024-9.281 7.024-5.127 0-9.283-3.387-9.283-7.024 0-.912.261-1.782.731-2.567C-7.142-.774-3.842-.001 0 0" style="fill:#c3e9fb;fill-opacity:1;fill-rule:nonzero;stroke:none;stroke-width:.131924" transform="translate(220.643 59.949)"/></g><g style="stroke-width:.131924"><path d="M0 0c3.835 0 7.129-.768 8.535-1.865.47.78.733 1.641.733 2.548 0 3.61-4.151 6.974-9.268 6.974-5.12 0-9.271-3.364-9.271-6.974 0-.907.262-1.768.731-2.548C-7.132-.768-3.837-.001 0 0" style="fill:#caebfc;fill-opacity:1;fill-rule:nonzero;stroke:none;stroke-width:.131924" transform="translate(220.643 59.923)"/></g><g style="stroke-width:.131924"><path d="M0 0c3.83 0 7.12-.766 8.522-1.852.469.773.731 1.628.731 2.526C9.253 4.259 5.11 7.6 0 7.6c-5.113 0-9.257-3.342-9.257-6.925 0-.899.26-1.754.728-2.529C-7.122-.766-3.832-.003 0 0" style="fill:#cfedfc;fill-opacity:1;fill-rule:nonzero;stroke:none;stroke-width:.131924" transform="translate(220.643 59.9)"/></g><g style="stroke-width:.131924"><path d="M0 0c3.825 0 7.109-.757 8.511-1.837.469.77.731 1.618.731 2.509 0 3.557-4.14 6.877-9.242 6.877-5.105 0-9.244-3.321-9.244-6.877 0-.893.26-1.74.727-2.509C-7.112-.757-3.826-.001 0 0" style="fill:#d5effc;fill-opacity:1;fill-rule:nonzero;stroke:none;stroke-width:.131924" transform="translate(220.643 59.873)"/></g><g style="stroke-width:.131924"><path d="M0 0c3.821 0 7.099-.751 8.499-1.823.468.762.73 1.606.73 2.49 0 3.527-4.134 6.825-9.229 6.825-5.099 0-9.231-3.298-9.231-6.825 0-.886.26-1.728.728-2.49C-7.102-.751-3.82-.002 0 0" style="fill:#dbf1fd;fill-opacity:1;fill-rule:nonzero;stroke:none;stroke-width:.131924" transform="translate(220.643 59.849)"/></g><g style="stroke-width:.131924"><path d="M0 0c3.814 0 7.089-.744 8.487-1.81.467.756.729 1.593.729 2.47 0 3.501-4.128 6.778-9.216 6.778-5.091 0-9.218-3.277-9.218-6.778 0-.877.259-1.714.725-2.472C-7.093-.744-3.815-.003 0 0" style="fill:#e0f3fd;fill-opacity:1;fill-rule:nonzero;stroke:none;stroke-width:.131924" transform="translate(220.643 59.825)"/></g><g style="stroke-width:.131924"><path d="M0 0c3.809 0 7.079-.74 8.475-1.796.466.751.729 1.58.729 2.45C9.204 4.129 5.08 7.382 0 7.382c-5.086 0-9.206-3.254-9.206-6.728 0-.871.26-1.699.724-2.45C-7.082-.74-3.81-.002 0 0" style="fill:#e6f6fd;fill-opacity:1;fill-rule:nonzero;stroke:none;stroke-width:.131924" transform="translate(220.643 59.8)"/></g><g style="stroke-width:.131924"><path d="M0 0c3.804 0 7.068-.735 8.462-1.781.467.744.727 1.567.727 2.431 0 3.447-4.116 6.676-9.189 6.676-5.078 0-9.192-3.231-9.192-6.676 0-.867.259-1.689.723-2.433C-7.072-.735-3.804-.002 0 0" style="fill:#ebf7fe;fill-opacity:1;fill-rule:nonzero;stroke:none;stroke-width:.131924" transform="translate(220.643 59.776)"/></g><g style="stroke-width:.131924"><path d="M0 0c3.798 0 7.058-.73 8.452-1.768.463.738.725 1.556.725 2.413 0 3.418-4.111 6.627-9.177 6.627-5.072 0-9.18-3.21-9.18-6.627 0-.859.258-1.675.722-2.413C-7.062-.73-3.798-.001 0 0" style="fill:#f0f9fe;fill-opacity:1;fill-rule:nonzero;stroke:none;stroke-width:.131924" transform="translate(220.643 59.75)"/></g><g style="stroke-width:.131924"><path d="M0 0c3.793 0 7.049-.723 8.44-1.752.462.732.724 1.543.724 2.393 0 3.393-4.105 6.578-9.164 6.578-5.063 0-9.167-3.188-9.167-6.578 0-.852.258-1.661.721-2.393C-7.053-.723-3.795 0 0 0" style="fill:#f7fcfe;fill-opacity:1;fill-rule:nonzero;stroke:none;stroke-width:.131924" transform="translate(220.643 59.724)"/></g><g style="stroke-width:.131924"><path d="M0 0c3.788 0 7.038-.718 8.427-1.739.463.727.724 1.531.724 2.373 0 3.367-4.099 6.531-9.151 6.531-5.057 0-9.153-3.167-9.153-6.528 0-.848.257-1.649.718-2.376C-7.044-.718-3.789-.002 0 0" style="fill:#fff;fill-opacity:1;fill-rule:nonzero;stroke:none;stroke-width:.131924" transform="translate(220.643 59.7)"/></g></g></g><g style="stroke-width:.131924"><path d="M0 0c-3.315 0-6.391-.562-8.932-1.515A9.77 9.77 0 0 1 .002-7.312a9.78 9.78 0 0 1 8.934 5.797C6.396-.562 3.315 0 0 0" style="fill:#0083ca;fill-opacity:1;fill-rule:nonzero;stroke:none;stroke-width:.131924" transform="matrix(10.10682 0 0 -10.10682 103.694 128.282)"/></g></g></svg>